<svg width="525" height="455" viewBox="0 0 525 455" fill="none" xmlns="http://www.w3.org/2000/svg">
<path d="M316.719 403.931L316.718 403.931C308.897 409.802 293.892 420.482 280.726 429.775C274.168 434.404 268.105 438.661 263.681 441.761C263.166 442.123 262.672 442.468 262.203 442.797C261.734 442.468 261.241 442.123 260.725 441.761C256.302 438.661 250.239 434.404 243.681 429.775C230.515 420.482 215.51 409.802 207.688 403.931L207.687 403.931C179.25 382.593 144.61 355.293 112.863 326.717C80.9687 298.009 52.5935 268.541 36.1647 242.874L36.1608 242.868C11.9202 205.058 4.03155 158.175 14.57 114.64L14.5867 114.571L14.6025 114.502C36.798 16.7459 160.155 -23.5337 236.949 42.1778L236.962 42.1885L236.974 42.1991C241.199 45.7901 245.152 49.8214 249.594 54.3632C251.377 56.1877 253.236 58.0881 255.157 59.9956L262.203 66.992L269.249 59.9956C271.171 58.0877 273.03 56.1874 274.814 54.362C279.255 49.8206 283.208 45.7898 287.433 42.1991L287.445 42.1885L287.457 42.1778C364.252 -23.5337 487.609 16.746 509.804 114.501L509.82 114.571L509.837 114.64C520.375 158.175 512.486 205.058 488.246 242.868L488.242 242.874C471.813 268.541 443.438 298.009 411.544 326.717C379.797 355.293 345.156 382.593 316.719 403.931Z" stroke="black" stroke-width="20"/>
</svg>
